 <svg xmlns="http://www.w3.org/2000/svg" width="19" height="16" viewBox="0 0 19 16" fill="none">
  <path d="M15.4157 1.34C14.2505 0.714 13.0047 0.259052 11.7021 0C11.5422 0.332095 11.3553 0.77877 11.2264 1.1341C9.84184 0.894993 8.46997 0.894993 7.11084 1.1341C6.98201 0.77877 6.79088 0.332095 6.62949 0C5.32557 0.259052 4.07829 0.715671 2.91311 1.34331C0.562951 5.42136 -0.0741396 9.39811 0.244406 13.3184C1.80316 14.655 3.31378 15.467 4.7989 15.9984C5.16559 15.4189 5.49262 14.8028 5.77435 14.1536C5.23778 13.9195 4.72387 13.6306 4.23827 13.2952C4.3671 13.1856 4.49311 13.071 4.61485 12.9531C7.57661 14.5438 10.7946 14.5438 13.721 12.9531C13.8442 13.071 13.9702 13.1856 14.0976 13.2952C13.6106 13.6322 13.0953 13.9211 12.5587 14.1553C12.8404 14.8028 13.166 15.4205 13.5341 16C15.0207 15.4687 16.5327 14.6567 18.0915 13.3184C18.4652 8.77378 17.453 4.83355 15.4157 1.34ZM6.17785 10.9075C5.28876 10.9075 4.55963 9.95435 4.55963 8.7937C4.55963 7.63305 5.27319 6.67831 6.17785 6.67831C7.08254 6.67831 7.81164 7.63138 7.79607 8.7937C7.79747 9.95435 7.08254 10.9075 6.17785 10.9075ZM12.158 10.9075C11.2689 10.9075 10.5398 9.95435 10.5398 8.7937C10.5398 7.63305 11.2533 6.67831 12.158 6.67831C13.0627 6.67831 13.7918 7.63138 13.7762 8.7937C13.7762 9.95435 13.0627 10.9075 12.158 10.9075Z" fill="#5865F2"/>
</svg>