<svg width="905" height="742" viewBox="0 0 905 742" fill="none" xmlns="http://www.w3.org/2000/svg">
<path d="M742.262 6.57603C742.262 6.57603 743.136 6.09279 745.857 6.81778C748.577 7.54278 748.966 2.61271 748.966 2.61271L751.59 0.872803C751.59 0.872803 752.124 4.78781 757.954 9.08943C763.784 13.391 770.002 19.6742 773.84 24.1208C777.678 28.5675 775.88 34.2707 777.095 36.3006C778.358 38.3306 783.216 40.0706 785.548 42.4872C787.88 44.8555 790.26 50.6072 792.932 51.9122C795.604 53.2172 796.77 56.6488 796.77 56.6488L800.268 58.0021C800.268 58.0021 800.948 59.9837 803.183 60.177C805.418 60.322 807.458 62.4487 807.458 62.4487C807.458 62.4487 810.907 64.9136 811.247 67.4269C811.636 69.9402 812.365 71.1002 813.239 70.9069C814.114 70.7136 815.134 68.0069 815.134 68.0069C815.134 68.0069 821.595 71.052 826.55 71.922C831.506 72.792 834.518 73.5653 835.295 74.1936C836.072 74.822 832.04 76.7069 835.052 77.4802C838.064 78.2536 839.959 71.7286 840.979 72.647C842.048 73.5653 838.452 76.9486 840.59 77.9152C842.728 78.8819 846.663 82.2168 846.663 82.2168C846.663 82.2168 859.78 85.9384 861.917 83.3285C864.055 80.7185 869.302 77.4802 869.302 77.4802C869.302 77.4802 870.03 71.7286 872.265 71.0519C874.548 70.3752 875.763 68.8287 876.734 66.9437C877.706 65.0588 881.253 58.6787 881.253 58.6787L882.516 67.6203C882.516 67.6203 879.406 67.9587 879.504 70.7137C879.601 73.4687 878.095 74.7735 876.589 76.3202C875.083 77.8668 873.091 78.3019 873.528 80.2352C873.917 82.2169 873.431 85.3585 873.431 85.3585C873.431 85.3585 871.293 87.8718 872.265 90.1434C873.188 92.415 875.423 96.475 877.026 97.1517C878.629 97.8284 883.584 99.0366 884.022 100.438C884.459 101.84 881.35 102.758 881.35 102.758C881.35 102.758 880.184 99.9067 878.726 100.922C877.075 97.2 873.48 100.245 875.568 102.372C877.657 104.45 887.325 112.956 886.694 114.02C886.062 115.083 882.516 113.73 882.516 113.73C882.516 113.73 880.232 110.781 879.552 112.135C878.872 113.488 880.767 114.455 880.864 116.678C880.961 118.901 883.973 116.34 886.451 117.065C888.88 117.79 891.552 119.191 891.649 118.321C891.697 117.451 890.872 114.068 890.872 114.068C890.872 114.068 895.147 109.138 896.264 108.655C897.43 108.171 904.426 107.592 904.037 109.235C903.649 110.878 902.094 112.956 900.102 113.391C898.11 113.778 895.147 112.763 894.661 115.47C894.175 118.176 894.272 120.69 894.272 120.69C894.272 120.69 892.426 122.768 891.066 122.671C889.657 122.575 888.054 121.898 886.354 122.333C884.653 122.768 881.738 124.508 881.738 124.508C881.738 124.508 880.087 120.255 878.338 121.753C876.54 123.3 878.338 125.62 878.338 125.62C878.338 125.62 875.811 125.716 874.062 126.973C872.314 128.23 871.002 126.731 871.002 126.731C871.002 126.731 873.82 129.97 872.071 131.226C870.322 132.483 867.65 130.888 867.65 130.888C867.65 130.888 868.767 126.828 865.95 127.456C863.132 128.085 861.529 131.033 863.278 133.353C865.075 135.721 863.229 137.509 860.849 136.204C858.42 134.9 856.816 133.981 856.816 133.981L847.634 134.126C847.634 134.126 846.177 131.226 842.485 132.338C838.793 133.45 820.283 146.499 818 150.753C815.717 155.006 808.138 167.234 808.769 170.327C809.352 173.421 809.11 176.707 809.11 176.707C809.11 176.707 807.409 181.009 806.632 183.716C805.855 186.422 805.563 190.579 805.563 190.579L800.511 187.147C800.511 187.147 799.15 183.184 795.07 181.492C791.037 179.801 782.001 177.191 776.706 173.517C768.107 169.554 762.472 158.631 760.334 157.906C755.573 158.099 754.359 156.069 747.557 153.943C740.756 151.768 737.793 150.173 734.878 152.203C731.963 154.184 729.923 158.776 727.299 160.226C724.676 161.676 719.721 168.539 718.506 170.134C717.292 171.729 711.996 171.584 711.073 168.781C710.15 165.929 715.202 169.651 716.125 168.297C717.048 166.992 714.085 165.929 714.085 165.929C714.085 165.929 714.619 162.353 711.462 161.869C708.304 161.338 707.478 161.048 706.555 158.728C705.632 156.456 702.766 153.749 701.211 155.586C699.705 157.423 698.539 157.616 697.616 155.344C696.693 153.073 693.584 153.653 693.341 156.988C693.098 160.274 689.649 161.434 688.337 164.672C686.977 167.911 686.831 173.711 689.017 174.436C691.203 175.161 690.037 175.596 692.952 177.481C695.867 179.366 697.227 179.752 699.122 180.961C700.968 182.217 704.174 180.236 706.846 181.782C709.518 183.377 711.704 187.969 713.696 190.579C715.737 193.237 717 194.687 719.235 194.88C721.469 195.025 719.429 196.282 721.227 197.78C723.073 199.279 725.161 200.825 723.461 201.26C721.761 201.695 719.137 199.279 717.631 200.825C716.125 202.372 714.134 202.71 712.093 200.487C710.004 198.312 705.438 200.004 704.515 201.26C703.592 202.517 706.263 196.33 703.786 196.185C701.308 195.992 699.511 201.115 699.511 201.115C699.511 201.115 696.45 197.539 694.507 200.729C692.612 203.967 693.147 211.459 693.147 211.459L690.766 213.489C690.766 213.489 686.928 212.909 685.859 215.905C684.791 218.853 682.264 219.24 682.264 219.24L677.406 217.21C677.406 217.21 674.2 211.41 674.734 208.414C675.22 205.417 679.204 204.305 679.544 200.197C679.835 196.04 683.09 189.661 680.661 185.311C678.184 180.961 674.006 181.202 674.006 181.202C674.006 181.202 671.917 175.499 669.39 175.596C666.864 175.692 667.35 165.736 667.35 165.736C667.35 165.736 670.945 162.111 669.39 157.036C667.836 151.913 668.419 147.273 674.2 148.529C679.738 145.339 681.439 144.614 681.633 142.149C681.827 139.685 683.479 146.983 685.665 147.708C687.851 148.433 687.754 142.294 687.754 142.294C687.754 142.294 689.454 142.149 691.058 139.201C692.661 136.253 696.547 136.301 696.839 132.676C697.082 129.1 688.969 126.006 688.386 122.623C687.803 119.24 689.552 118.273 689.163 116.05C688.774 113.826 692.126 117.113 693.487 114.165C694.798 111.216 697.519 112.231 697.519 112.231C697.519 112.231 696.207 115.18 699.462 116.243C702.717 117.306 703.543 121.27 705.389 122.478C707.235 123.735 710.199 121.705 710.199 121.705C710.199 121.705 713.502 118.611 715.348 119.578C717.243 120.545 717.048 126.635 721.324 125.281C725.599 123.928 733.032 117.838 732.06 115.808C731.088 113.778 732.108 115.276 732.837 112.521C733.615 109.815 729.874 107.301 729.874 107.301C729.874 107.301 732.254 105.271 730.36 100.97C728.465 96.6683 728.028 94.6867 728.028 94.6867L731.283 91.8833L729.971 90.675C729.971 90.675 734.926 87.7267 735.266 86.6151C735.606 85.5034 739.736 86.3734 739.687 83.0385C739.639 79.7035 742.553 82.1202 742.553 77.9636C742.602 73.807 740.951 73.4203 741.291 68.732C741.631 64.0437 744.691 56.5039 745.565 48.819C746.44 41.134 744.934 31.0324 742.942 27.5524C740.95 24.0725 736.967 21.8492 736.821 19.6259C736.724 17.4026 738.91 13.6809 738.618 10.346C738.327 7.01102 738.619 2.5644 740.61 2.17773C742.602 1.88774 742.262 6.57603 742.262 6.57603Z" fill="#78ADD4"/>
<path d="M656.033 173.469C660.162 172.793 658.656 183.378 658.656 183.378C658.656 183.378 656.081 184.586 655.061 186.713C654.09 188.839 648.988 174.629 656.033 173.469Z" fill="#B3BFE8"/>
<path d="M613.808 376.998L614.974 378.447C614.974 378.447 614.391 382.411 614.002 383.232C613.614 384.054 609.873 387.147 610.164 388.694C610.456 390.241 611.039 390.482 612.01 390.627C612.982 390.772 615.071 390.869 615.071 390.869L615.654 392.077C615.654 392.077 615.12 394.881 613.371 397.636C611.622 400.439 611.039 402.614 608.998 403.436C606.958 404.257 604.82 403.774 603.849 404.596C602.877 405.417 601.226 406.045 601.226 406.045L600.205 404.741C600.205 404.741 602.829 403.291 602.974 402.034C603.12 400.777 603.072 399.666 604.043 398.602C605.015 397.491 604.821 395.316 603.12 394.784C601.42 394.252 600.497 396.379 600.497 396.379L600.302 398.989H598.699L599.331 390.531C599.331 390.531 603.217 386.857 603.557 385.842C603.897 384.827 605.403 382.604 605.598 382.604C605.792 382.604 607.541 382.459 607.784 382.362C608.124 382.266 613.808 376.998 613.808 376.998Z" fill="#B3BFE8"/>
<path d="M385.096 476.66L385.436 479.367L387.185 482.267C387.185 482.267 390.78 481.059 391.363 480.914C391.946 480.769 393.792 475.839 393.792 475.839L389.808 471.102L388.448 471.537L385.096 476.66Z" fill="#B3BFE8"/>
<path d="M374.059 483.62C374.059 483.62 374.593 485.07 374.933 486.665C375.273 488.26 379.742 489.613 379.742 489.613L382.56 486.471L382.706 484.248L385.524 483.91L382.852 480.865L379.937 481.396L380.325 485.166L377.799 485.408C377.799 485.408 374.642 483.136 376.536 482.75C378.431 482.315 378.722 483.475 378.577 482.895C378.431 482.315 381.346 478.013 381.346 478.013L378.285 477.771C378.285 477.771 375.322 480.043 374.787 481.396C374.253 482.701 374.059 483.62 374.059 483.62Z" fill="#B3BFE8"/>
<path d="M334.57 599.33L336.902 599.523C336.902 599.523 337.728 597.01 338.7 597.541C339.671 598.073 339.914 601.215 339.914 601.215L341.955 602.471C341.955 602.471 340.594 598.605 342.246 598.315C343.947 598.073 347.347 598.073 347.347 598.073L347.59 594.835C347.59 594.835 344.724 595.753 343.266 595.511C341.809 595.318 340.692 594.883 340.4 595.318C340.109 595.753 339.768 597.59 338.797 595.946C337.825 594.303 337.145 592.128 337.145 592.128L335.008 593.626L334.57 599.33Z" fill="#B3BFE8"/>
<path d="M349.674 595.076L352.589 592.225L353.269 592.853C353.269 592.853 352.492 596.14 352.249 596.575C352.054 597.01 351.228 597.251 351.228 597.251L349.674 595.076Z" fill="#B3BFE8"/>
<path d="M349.045 588.55C349.045 588.55 353.611 587.245 352.98 586.52C352.397 585.843 349.628 586.568 350.454 584.49C351.279 582.411 351.571 580.526 351.571 580.526C351.571 580.526 347.393 583.185 347.247 582.508C347.101 581.831 348.121 582.218 348.753 579.656C349.385 577.095 348.073 576.563 348.073 576.563C348.073 576.563 344.915 575.596 344.867 578.448C344.818 581.3 342.778 580.623 343.166 581.3C343.555 581.976 345.644 582.943 344.915 583.813C344.187 584.683 343.458 584.441 343.701 585.021C343.944 585.601 345.109 588.453 345.401 588.308C345.692 588.163 346.518 584.78 346.761 584.973C347.053 585.166 349.045 588.55 349.045 588.55Z" fill="#B3BFE8"/>
<path d="M416.811 573.181C417.005 574.486 420.941 573.954 421.718 573.519C422.495 573.084 428.422 570.522 428.811 570.136C429.199 569.749 428.616 567.768 428.616 567.768C428.616 567.768 426.09 569.169 424.05 569.942C422.058 570.716 422.058 570.474 420.503 570.861C418.949 571.247 416.52 571.344 416.811 573.181Z" fill="#B3BFE8"/>
<path d="M369.646 581.832C369.646 581.832 372.172 581.542 373.095 582.557C373.969 583.572 375.718 583.185 375.912 583.185C376.107 583.185 378.487 582.122 377.273 581.493C376.058 580.865 372.56 581.348 371.783 580.382C371.006 579.415 370.229 579.028 368.674 579.125C367.119 579.222 365.176 577.288 365.03 578.303C364.885 579.318 363.087 579.125 365.37 580.285C367.654 581.493 367.557 581.783 369.646 581.832Z" fill="#B3BFE8"/>
<path d="M391.891 576.613C392.765 578.111 393.057 576.081 394.514 576.806C395.972 577.531 395.874 577.87 397.186 576.565C398.449 575.26 400.441 575.646 400.684 574.196C400.927 572.746 400.83 571.248 399.907 571.393C398.984 571.538 398.352 575.356 396.797 575.453C395.243 575.55 394.903 573.423 394.708 573.375C394.514 573.278 393.251 574.1 393.251 574.1C393.251 574.1 391.162 575.308 391.891 576.613Z" fill="#B3BFE8"/>
<path d="M426.92 581.059C426.92 581.059 429.64 584.298 431.146 585.603C432.604 586.908 434.401 585.844 434.644 585.844C434.935 585.844 439.793 586.231 439.793 586.231C439.793 586.231 438.288 589.276 438.822 590.339C439.405 591.402 439.308 592.611 439.308 592.611C439.308 592.611 437.802 593.964 438.093 595.221C438.385 596.429 439.162 598.362 439.502 598.556C439.842 598.749 442.806 601.407 442.806 601.407L442.174 603.679C442.174 603.679 439.454 602.761 439.454 603.872C439.454 604.984 441.008 605.564 441.008 605.564L443.874 608.367L443.097 609.769L438.579 609.431L437.899 612.524C437.899 612.524 435.858 611.461 434.741 612.282C433.672 613.104 429.591 616.536 429.591 616.536L427.211 619.677C427.211 619.677 422.402 618.034 422.985 619.387C423.519 620.74 423.033 622.335 422.596 623.882C422.159 625.429 420.604 628.812 420.604 628.812L420.653 635.482L419.244 635.82C419.244 635.82 413.9 630.069 412.734 628.522C411.568 626.975 410.596 624.559 408.021 623.109C405.447 621.61 402.046 622.19 400.783 620.547C399.52 618.904 398.5 616.246 396.848 618.517C395.196 620.789 392.087 621.224 392.087 621.224C392.087 621.224 389.512 623.157 388.978 623.399C388.395 623.64 386.889 626.492 386.889 626.492C386.889 626.492 384.654 622.722 383.148 624.269C381.642 625.815 381.788 627.604 381.788 627.845C381.788 628.135 381.205 628.28 381.205 628.28C381.205 628.28 381.059 625.139 379.942 626.347C378.824 627.555 375.375 628.957 376.832 630.939C378.29 632.872 378.533 633.259 378.387 633.984C378.241 634.709 375.618 637.464 374.355 638.479C373.092 639.494 372.849 644.859 371.003 645.052C369.108 645.294 368.428 642.007 366.728 643.65C365.027 645.293 364.59 649.692 364.687 649.982C364.736 650.272 365.319 653.462 364.347 654.138C363.375 654.815 362.647 654.96 362.647 654.96L364.979 659.938L363.424 660.663C363.424 660.663 359.975 655.588 359.198 656.217C358.42 656.797 355.165 660.808 355.165 660.808C355.165 660.808 351.959 659.938 351.716 659.793C351.425 659.697 350.307 656.555 349.627 656.942C348.947 657.377 347.441 658.827 347.441 658.827C347.441 658.827 347.295 660.76 346.615 660.905C345.935 661.05 343.457 660.663 343.457 660.663L341.805 658.972C341.805 658.972 341.611 656.458 341.32 656.458C341.028 656.458 340.785 655.202 340.785 655.202L342.777 654.622L342.437 656.555C342.437 656.555 343.554 658.923 343.943 658.875C344.332 658.827 347.684 657.28 347.684 657.28C347.684 657.28 347.441 654.477 348.073 653.51C348.704 652.543 352.007 651.963 352.153 649.644C352.348 647.324 350.404 646.937 350.113 647.082C349.821 647.227 346.567 649.595 346.567 649.595L345.158 648.483L343.554 649.112L342.388 646.26L344.817 645.052C344.817 645.052 345.255 648.242 346.032 647.613C346.809 647.033 346.761 645.004 346.421 644.617C346.081 644.23 346.566 642.587 343.943 642.055C341.271 641.475 336.947 643.505 338.745 640.847C340.542 638.189 342.437 638.334 343.651 638.817C344.817 639.252 344.089 636.545 344.089 636.545L340.542 634.419L343.311 633.307C343.311 633.307 343.554 635.337 344.526 635.434C345.546 635.53 349.53 634.225 348.315 633.5C347.052 632.775 345.498 632.534 345.498 632.534C345.498 632.534 345.983 627.024 344.283 626.54C342.534 626.057 340.105 626.25 339.862 625.38C339.619 624.51 340.105 621.755 340.105 621.755C340.105 621.755 342.097 619.725 341.125 619.194C340.154 618.662 332.284 623.157 332.284 623.157L329.709 624.172L327.377 623.979C327.377 623.979 328.349 621.949 328.932 621.852C329.515 621.804 336.122 619.774 337.968 618.71C339.814 617.647 342.923 613.345 345.206 612.669C347.489 611.992 352.59 611.896 352.056 609.382C351.522 606.869 351.085 604.984 352.882 604.839C354.68 604.694 353.902 605.951 354.68 604.694C355.408 603.437 355.991 598.604 355.991 598.604C355.991 598.604 354.048 597.444 354.194 597.541C354.388 597.637 356.088 594.737 356.526 595.172C356.963 595.607 356.137 598.121 357.497 597.057C358.858 595.946 360.946 592.949 360.946 592.949C360.946 592.949 364.493 593.674 365.562 592.079C366.63 590.484 366.533 588.938 366.533 588.938L369.157 589.614C369.157 589.614 371.391 593.577 372.994 595.607C374.598 597.686 374.112 598.652 376.444 598.362C378.776 598.072 381.253 595.462 381.253 595.462C381.253 595.462 383.877 596.574 384.703 596.381C385.528 596.187 386.597 594.399 386.597 594.399C386.597 594.399 387.083 597.782 387.472 597.444C387.86 597.154 390.921 597.106 390.921 597.106C390.921 597.106 392.281 598.942 393.739 597.927C395.196 596.864 396.07 592.611 396.07 592.611C396.07 592.611 397.868 593.094 397.916 590.436C397.916 587.778 398.937 585.554 397.577 585.071C396.216 584.588 394.127 581.494 394.127 581.494C394.127 581.494 396.362 581.398 396.362 581.639C396.362 581.881 399.131 584.636 400.832 583.814C402.58 583.041 403.455 580.673 403.455 580.673C403.455 580.673 405.155 580.238 406.224 579.658C407.293 579.078 407.244 575.743 408.896 576.178C410.548 576.564 407.973 577.144 412.005 577.869C416.037 578.643 418.612 577.724 418.612 577.724L420.944 576.226L422.353 577.338L423.567 579.609L426.434 578.401L426.92 581.059Z" fill="#F2925C"/>
<path d="M203.299 572.601L204.951 574.099C204.951 574.099 206.311 568.203 208.06 567.478C209.76 566.753 211.169 565.786 211.46 565.689C211.752 565.641 211.606 558.971 212.87 556.941C214.133 554.911 217.97 549.353 217.97 549.353C217.97 549.353 218.116 546.211 218.262 545.293C218.408 544.374 218.505 542.151 218.505 542.151L217.873 540.798L214.813 543.069L212.384 543.553C212.384 543.553 210.926 548.241 209.858 549.836C208.789 551.431 206.748 553.944 206.748 553.944C206.748 553.944 205.097 555.926 205.291 556.216C205.437 556.506 206.554 557.859 207.088 558.004C207.623 558.149 208.497 554.959 208.497 554.959L210.246 556.361C210.246 556.361 209.858 559.213 209.858 560.469C209.858 561.774 209.76 562.934 209.76 562.934L207.186 561.194L205.485 558.778L204.173 560.083C204.173 560.083 204.902 560.324 203.979 562.741C203.105 565.303 201.647 571.103 203.299 572.601Z" fill="#E88B99"/>
<path d="M277.147 590.483C279.333 591.16 281.957 589.613 281.957 589.613L283.851 590.58C283.851 590.58 279.139 591.885 280.256 593.625C281.374 595.365 282.248 596.815 282.248 596.815C282.248 596.815 280.791 597.685 281.374 599.086C281.957 600.536 285.357 603.823 285.455 604.258C285.552 604.693 289.147 607.013 290.458 608.076C291.77 609.14 291.77 611.025 293.227 611.798C294.685 612.571 296.045 609.768 296.045 609.768L297.697 610.01C297.697 610.01 298.28 611.701 299.834 611.266C301.389 610.831 304.644 608.705 304.838 607.496C305.081 606.288 307.51 605.08 307.51 605.08L311.591 606.336C311.591 606.336 315.137 613.296 315.089 613.441C315.089 613.538 311.688 619.58 311.688 619.58C311.688 619.58 310.134 618.033 308.968 618.806C307.802 619.531 307.365 621.609 307.365 621.609C307.365 621.609 305.567 623.156 303.915 622.721C302.264 622.334 301.632 619.918 300.563 621.078C299.494 622.238 298.911 622.914 300.126 624.944C301.389 626.974 303.624 628.811 306.49 629.149C309.405 629.488 315.478 629.826 315.478 629.826L316.352 631.276C316.352 631.276 317.567 633.596 316.109 634.466C314.652 635.336 315.915 637.076 315.915 637.076L318.149 635.433L323.396 637.608L323.25 639.251L321.259 639.783L319.753 639.686C319.753 639.686 318.927 637.946 318.295 640.556C317.664 643.166 316.449 644.712 317.761 645.921C319.072 647.129 323.494 647.709 323.494 647.709L325.583 645.921L326.117 647.902C326.117 647.902 323.007 648.241 321.987 649.401C320.919 650.561 319.315 651.721 319.947 652.446C320.579 653.171 322.23 653.316 322.23 653.316L321.842 654.524C321.842 654.524 316.303 652.446 315.915 655.346C315.575 658.246 315.186 659.744 315.186 659.744C315.186 659.744 309.939 656.989 309.939 659.357C309.891 661.726 311.445 661.822 311.445 661.822L310.765 663.417L307.462 663.176C307.462 663.176 305.227 663.127 305.519 664.819C305.81 666.511 307.753 666.511 307.753 666.511L306.539 668.105C306.539 668.105 303.77 665.689 304.061 667.912C304.304 670.136 305.859 670.136 305.859 670.136L305.567 671.924L303.478 671.779L302.118 676.805C302.118 676.805 300.32 678.207 299.3 681.01C298.231 683.862 296.774 690.387 296.142 692.707C295.511 695.027 292.936 697.588 292.644 699.522C292.353 701.455 292.061 701.552 292.547 702.712C293.033 703.872 292.499 705.322 292.499 705.322C292.499 705.322 290.701 705.032 290.701 707.013C290.701 708.947 290.41 708.947 291.138 710.348C291.867 711.798 291.236 713.007 291.236 713.007C291.236 713.007 289.487 712.475 289.049 714.215C288.661 716.003 289.875 717.888 289.875 717.888L288.807 718.903L287.398 717.405L286.669 719.822C286.669 719.822 283.997 720.063 284.872 721.223C285.746 722.383 287.883 724.075 287.155 724.316C286.426 724.558 284.726 724.848 284.726 724.848L279.527 721.562L278.945 720.257C278.945 720.257 277.439 717.937 274.135 719.628C270.783 721.32 269.423 722.866 271.172 723.833C272.921 724.8 275.252 725.235 275.252 725.235L273.941 727.651L273.115 729.537C273.115 729.537 272.629 728.667 270.394 730.455C268.159 732.243 267.965 734.031 266.265 735.143C264.565 736.255 262.962 736.835 260.29 737.221C257.618 737.56 257.617 737.56 257.617 737.56L254.022 741.04C254.022 741.04 253.488 736.835 254.411 735.916C255.334 734.998 258.784 733.065 258.784 733.065C258.784 733.065 257.569 730.6 258.638 729.295C259.706 727.99 260.192 725.38 260.192 725.38L259.561 724.51C259.561 724.51 261.018 725.332 260.921 723.205C260.775 721.127 258.201 716.632 258.201 716.632L257.763 713.297C257.763 713.297 259.366 714.36 260.484 712.378C261.601 710.397 262.087 711.508 262.33 709.72C262.621 707.932 261.553 703.147 258.784 702.809C256.014 702.47 253.051 702.954 252.954 706.143C252.857 709.333 254.266 709.285 254.266 709.285C254.266 709.285 258.2 708.995 257.763 710.783C257.375 712.572 256.257 713.877 254.945 713.2C253.585 712.523 253.197 710.445 251.933 710.348C250.67 710.252 250.088 711.025 249.407 714.312C248.727 717.598 247.124 722.867 248.679 724.365C250.233 725.863 253.391 726.25 253.391 726.25L253.78 728.763C253.78 728.763 252.273 731.856 252.516 732.678C252.711 733.548 251.691 734.273 251.691 734.273C251.691 734.273 251.108 732.726 249.99 732.775C248.873 732.823 250.087 732.92 247.367 730.503C244.646 728.086 242.509 728.763 241.78 728.86C241.1 728.956 237.699 727.603 237.699 727.603C237.699 727.603 235.805 728.57 235.27 728.376C234.736 728.183 233.278 725.476 233.424 725.041C233.57 724.655 231.772 722.577 231.772 722.577L229.829 718.71L232.404 717.502C232.404 717.502 230.024 717.598 232.987 718.807C235.95 720.015 239.74 717.937 240.711 714.118C241.683 710.3 244.306 709.092 241.683 706.723C239.06 704.307 239.934 703.678 238.962 701.938C237.991 700.198 235.707 698.942 235.756 698.507C235.804 698.072 236.825 695.559 236.825 695.559C236.825 695.559 238.234 696.912 239.011 695.849C239.788 694.785 237.845 692.852 237.845 692.852L239.157 686.424C239.157 686.424 237.748 684.78 237.359 684.49C236.97 684.2 234.007 678.835 234.202 678.449C234.396 678.062 236.242 675.404 236.631 675.694C237.019 675.984 238.962 676.419 239.302 676.999C239.691 677.579 241.586 679.947 240.322 680.382C239.011 680.865 235.756 680.189 238.282 681.639C240.808 683.089 242.412 682.219 242.412 682.219C242.412 682.219 242.023 683.572 243.14 683.814C244.258 684.055 247.901 679.85 248.047 679.464C248.193 679.077 251.885 676.419 253.439 674.582C254.945 672.745 256.889 667.236 256.889 667.236L256.937 662.789L259.318 661.001C259.318 661.001 263.35 657.134 261.358 655.877C259.366 654.621 256.306 656.457 256.306 656.457C256.306 656.457 254.071 656.312 253.925 656.699C253.78 657.086 252.759 655.781 252.759 655.781L257.034 652.639L260.727 651.672L260.29 647.902C260.29 647.902 263.739 646.211 261.796 644.567C259.852 642.876 256.16 641.378 255.82 640.943C255.431 640.508 251.836 634.853 251.836 634.853C251.836 634.853 255.82 630.019 253.099 628.859C250.379 627.699 249.407 629.536 248.29 627.699C247.173 625.814 247.804 624.896 245.812 625.573C243.82 626.249 237.359 628.569 240.226 631.663C243.043 634.804 246.978 636.448 245.472 637.849C243.966 639.251 237.845 637.704 239.545 640.604C241.294 643.504 242.8 643.746 245.084 642.828C247.367 641.909 249.99 644.277 250.233 645.002C250.476 645.727 249.067 651.431 248.97 652.784C248.873 654.186 247.27 654.717 245.812 654.089C244.306 653.412 243.432 652.107 242.897 653.896C242.363 655.636 242.703 656.506 241.829 656.844C240.954 657.182 239.788 654.186 239.788 654.186L239.643 652.252C239.643 652.252 243.335 653.509 243.14 650.029C242.995 646.549 239.74 643.408 238.234 644.664C236.728 645.921 235.902 646.163 235.902 646.163C235.902 646.163 232.161 644.229 231.481 645.824C230.801 647.419 228.955 648.144 228.955 648.144C228.955 648.144 227.983 649.884 226.331 651.431C224.68 652.977 221.327 655.346 221.327 655.346L221.425 653.944C221.425 653.944 226.428 650.271 225.554 648.966C224.679 647.661 222.008 645.776 222.008 645.776C222.008 645.776 223.222 644.471 221.23 642.828C219.287 641.136 217.004 637.801 216.907 637.366C216.81 636.931 217.246 632.823 217.246 632.823C217.246 632.823 220.55 629.343 220.89 628.521C221.23 627.699 223.319 627.603 223.368 628.859C223.416 630.116 228.857 633.838 228.857 633.838L227.789 638.623C227.789 638.623 225.651 637.511 225.651 639.444C225.651 641.378 225.117 644.664 226.963 644.132C228.809 643.553 229.635 640.169 230.704 640.653C231.772 641.136 234.784 643.601 235.076 642.103C235.319 640.604 231.821 635.191 231.821 635.191C231.821 635.191 233.57 632.533 231.772 631.856C229.975 631.179 228.809 630.648 228.809 630.648L226.914 628.279L224.582 627.989C224.582 627.989 226.331 626.733 225.068 625.234C223.805 623.736 221.327 625.089 221.327 625.089L219.384 624.944C219.384 624.944 222.251 624.026 221.425 621.754C220.599 619.483 218.704 620.884 218.704 620.884L217.052 620.353C217.052 620.353 218.85 618.565 219.238 617.308C219.627 616.1 219.821 613.49 219.821 613.49C219.821 613.49 221.425 612.233 221.862 612.378C222.25 612.523 222.396 614.36 224.534 614.118C226.623 613.876 229.246 612.716 229.732 613.538C230.218 614.36 228.566 617.984 228.955 618.323C229.343 618.613 232.015 618.42 232.355 617.453C232.695 616.486 233.181 611.846 232.647 611.363C232.113 610.928 227.789 609.478 227.789 609.478C227.789 609.478 229.489 607.061 230.169 607.206C230.849 607.351 235.173 605.756 235.173 605.756L236.436 607.69L236.631 610.735L239.643 611.653C239.643 611.653 242.654 607.013 244.015 607.11C246.104 606.868 246.25 604.935 246.25 604.935L242.314 603.823L243.238 602.518L247.124 601.02L248.727 601.986C248.727 601.986 246.978 602.808 248.581 603.63C250.185 604.451 249.99 604.983 251.496 605.515C253.002 606.046 256.549 605.176 256.549 605.176C256.549 605.176 257.812 603.485 257.617 602.228C257.423 600.971 255.966 600.005 255.528 600.391C255.091 600.778 253.245 603.001 253.245 603.001L252.662 601.551L257.957 597.636L259.172 596.476L260.872 590.676C260.872 590.676 263.01 588.308 263.933 589.033C264.856 589.807 266.362 592.078 267.528 591.16C268.694 590.242 270.103 588.646 270.783 588.84C271.609 588.985 275.641 590 277.147 590.483Z" fill="#E88B99"/>
<path d="M252.322 657.521C252.322 657.521 254.8 660.034 253.682 661.919C252.565 663.756 251.982 664.288 251.788 664.819C251.594 665.351 251.837 668.154 251.497 668.686C251.157 669.218 246.881 672.794 246.881 672.794L245.229 672.649C245.229 672.649 244.841 670.523 245.375 670.571C245.91 670.619 249.067 670.958 249.262 669.314C249.456 667.671 247.853 664.964 247.853 664.964C247.853 664.964 247.076 667.188 245.327 667.623C243.578 668.058 242.849 668.976 242.849 668.976C242.849 668.976 240.371 670.571 240.031 671.006C239.74 671.393 238.623 672.843 236.922 673.278C235.222 673.713 232.939 674.244 232.89 675.356C232.793 676.467 233.521 679.851 231.967 679.996C230.412 680.141 228.906 674.389 228.906 674.389C228.906 674.389 231.918 673.229 233.473 672.794C235.027 672.359 233.667 670.039 232.55 670.088C231.432 670.136 230.121 666.994 230.121 666.994C230.121 666.994 233.036 663.176 233.522 662.741C233.959 662.306 233.473 659.744 233.473 659.744C233.473 659.744 234.445 659.793 234.833 659.986C235.222 660.131 238.671 657.376 239.011 657.811C239.4 658.246 241.926 660.518 241.926 660.518C241.926 660.518 240.614 669.314 241.294 668.734C241.975 668.154 243.286 665.738 243.335 665.351C243.384 664.916 240.469 662.644 243.626 661.194C246.784 659.744 249.942 662.354 251.108 661.484C252.371 660.614 252.322 657.521 252.322 657.521Z" fill="#E88B99"/>
<path d="M222.975 690.725C223.46 690.822 225.646 692.465 226.424 693.335C227.201 694.205 227.104 695.606 226.229 695.945C225.355 696.283 223.218 693.383 222.683 694.978C222.149 696.621 221.76 697.975 221.76 697.975C221.76 697.975 220.643 697.733 219.914 698.651C219.137 699.57 215.201 706.046 215.201 706.046C215.201 706.046 214.035 703.05 213.355 703.001C212.675 702.953 214.618 698.796 214.618 698.796C214.618 698.796 216.027 698.603 218.408 696.428C220.74 694.302 219.671 690.048 222.975 690.725Z" fill="#E88B99"/>
<path d="M189.213 617.599C190.865 616.777 192.177 617.889 193.488 620.016C194.8 622.142 196.549 623.641 195.092 625.671C193.634 627.701 192.468 629.827 192.468 629.827C192.468 629.827 195.626 628.861 195.189 630.504C194.703 632.147 194.071 633.549 193.683 633.452C193.343 633.356 191.448 631.181 190.768 632.872C190.088 634.564 190.379 635.724 190.574 636.642C190.768 637.561 189.019 638.769 188.484 638.624C187.95 638.479 187.319 638.334 187.756 637.464C188.193 636.594 188.63 632.921 187.999 632.969C187.367 633.017 186.784 635.821 186.736 636.207C186.687 636.594 184.306 635.289 183.481 636.352C182.655 637.416 182.217 638.092 181.635 638.624C181.052 639.156 178.574 638.769 178.234 639.59C177.894 640.412 175.756 642.829 177.942 643.795C180.08 644.762 180.566 644.714 181.1 646.067C181.635 647.42 183.335 647.324 183.043 647.71C182.752 648.049 179.789 648.774 179.497 648.919C179.206 649.064 178.525 646.744 177.068 647.614C175.611 648.532 174.979 649.305 174.979 649.305C174.979 649.305 176.728 648.242 176.193 650.514C175.659 652.785 175.368 652.93 174.736 652.882C174.105 652.834 173.667 651.964 173.619 651.819C173.521 651.674 174.93 650.224 172.89 650.61C170.801 650.997 169.635 650.562 169.343 650.61C169.052 650.659 168.663 652.399 167.886 651.819C167.109 651.19 166.331 650.224 166.331 650.224C166.331 650.224 167.546 650.32 167.789 649.402C168.032 648.484 169.246 649.885 168.032 648.484C166.817 647.082 165.651 645.342 166.672 645.535C167.692 645.68 167.303 647.324 168.372 646.695C169.441 646.019 169.052 643.795 169.149 642.49C169.246 641.185 170.364 637.126 170.849 637.271C171.287 637.416 172.696 639.639 172.696 639.639C172.696 639.639 168.955 641.379 172.307 640.896C175.708 640.412 177.505 638.431 177.505 638.431C177.505 638.431 178.234 639.784 180.809 637.561C183.384 635.337 183.626 634.371 185.278 633.452C186.93 632.534 188.193 630.166 189.262 629.682C190.331 629.199 193.391 625.284 192.711 623.206C192.031 621.127 190.719 619.919 190.185 619.581C189.65 619.194 188.387 617.986 189.213 617.599Z" fill="#E88B99"/>
<path d="M194.167 614.167C195.625 612.62 197.033 613.007 198.005 613.877C198.977 614.795 198.636 617.84 196.693 617.792C194.75 617.695 192.855 615.52 194.167 614.167Z" fill="#E88B99"/>
<path d="M201.652 623.592C201.847 624.027 203.887 624.848 206.559 623.495C209.28 622.142 213.215 615.375 214.478 614.457C215.741 613.539 213.798 609.865 213.798 609.865C213.798 609.865 211.66 614.94 210.688 614.167C209.717 613.345 209.474 614.263 209.377 615.278C209.279 616.293 208.016 616.293 207.434 617.792C206.851 619.338 208.648 620.353 206.413 621.32C204.178 622.287 200.778 621.755 201.652 623.592Z" fill="#E88B99"/>
<path d="M218.945 590.58C218.848 594.205 222.103 595.51 223.463 594.785C224.824 594.06 226.087 591.015 224.921 589.903C223.852 588.791 219.091 586.23 218.945 590.58Z" fill="#E88B99"/>
<path d="M701.788 512.186C699.796 511.51 696.541 510.156 697.755 508.948C698.97 507.74 702.127 510.398 702.127 510.398L706.063 512.525L703.002 506.386C703.002 506.386 698.387 498.267 698.727 496.478C699.067 494.642 697.075 491.355 695.618 488.31C694.16 485.265 700.622 483.525 698.678 481.882C696.735 480.287 697.853 477.773 698.97 475.453C699.796 473.714 702.565 463.515 704.314 457.715C704.022 457.57 703.731 457.425 703.439 457.184C702.905 456.797 702.468 456.362 702.031 455.975C700.573 454.67 699.844 454.139 699.067 454.574C698.338 454.96 698.241 455.347 698.095 456.169C697.998 456.749 697.852 457.425 697.415 458.199C697.172 458.634 697.027 459.165 696.832 459.649C696.541 460.519 696.298 461.437 695.472 461.824C694.937 462.065 694.354 462.017 693.626 461.727C691.342 460.76 688.088 457.474 687.116 455.782C686.63 454.96 685.853 453.462 685.221 452.157C684.638 450.997 684.055 449.837 683.813 449.499C683.715 449.354 683.57 449.064 683.424 448.774C682.841 447.566 681.772 445.294 679.732 444.907C677.108 444.375 671.959 444.279 671.133 444.279C670.501 444.472 667.246 445.487 666.226 445.825C665.692 446.019 664.574 446.841 663.36 447.662C662.388 448.387 661.271 449.16 660.105 449.885C658.21 451.094 656.316 451.48 655.247 451.674C654.955 451.722 654.567 451.819 654.469 451.867C654.178 452.109 650.243 455.347 647.814 457.329C647.571 457.522 647.182 457.57 646.891 457.377C646.794 457.329 644.996 456.024 643.782 454.864C643.393 454.525 642.907 453.994 642.373 453.462C642.373 453.462 642.373 453.462 642.324 453.414C641.255 452.205 640.09 450.707 639.555 449.499C639.215 448.677 638.486 448.049 638.001 447.614C637.321 448.725 635.911 450.562 634.163 450.514C633.58 450.514 630.665 450.514 630.227 452.64C630.082 453.365 630.13 453.994 630.179 454.622C630.276 455.685 630.373 456.894 629.062 457.619C628.236 458.054 627.458 458.102 626.827 458.102C626.098 458.102 625.807 458.15 625.612 458.489C625.078 459.262 624.835 460.374 624.641 461.099C624.544 461.485 624.495 461.775 624.398 461.969C624.106 462.694 623.232 463.177 623.038 463.274C622.892 463.322 622.746 463.37 622.6 463.37C622.552 463.37 620.123 463.08 618.034 463.032C615.993 462.984 613.078 464.095 612.69 465.449C612.495 466.125 612.544 466.609 612.593 466.995C612.641 467.575 612.738 468.493 611.427 468.88C610.455 469.17 609.386 470.04 609.192 470.33C609.144 470.475 609.095 470.669 608.998 470.959C608.755 471.684 608.318 473.23 608.755 474.003C609.581 475.357 609.532 477.29 608.901 478.063C608.949 478.257 609.095 478.498 609.192 478.692C609.192 478.692 609.24 478.692 609.24 478.643C610.115 478.305 612.01 477.58 613.613 478.015C615.75 478.595 616.868 482.22 616.965 482.607C616.965 482.655 616.965 482.703 617.014 482.752C617.111 483.525 617.159 485.41 616.188 485.99C615.945 486.135 615.459 486.763 615.119 487.295C615.605 487.778 616.285 488.697 616.139 489.663C615.993 490.727 614.682 492.225 614.05 492.902L614.244 493.675L619.588 500.151C619.734 500.296 619.783 500.538 619.734 500.78L619.2 503.535C620.9 505.71 622.746 508.03 622.989 508.271C622.989 508.271 628.527 512.573 631.734 515.666C635.474 519.243 637.223 521.031 637.272 522.481C637.272 522.723 637.32 522.965 637.32 523.254C637.466 524.608 637.66 526.638 635.96 527.798C635.426 528.184 634.697 528.475 633.92 528.813C631.734 529.78 630.13 530.601 630.568 531.761C631.053 533.066 631.588 533.501 632.025 533.839C632.365 534.129 632.948 534.564 632.705 535.434C632.511 536.063 631.928 536.449 631.296 536.788C630.471 537.271 629.936 537.658 629.887 538.334C629.79 539.446 629.693 540.799 633.968 541.428C634.114 541.428 634.26 541.476 634.406 541.524C635.28 540.558 637.175 538.721 639.75 537.996C643.345 536.981 650.194 537.078 653.886 537.899C657.53 538.721 654.664 542.394 656.267 543.071C657.87 543.748 656.753 546.454 656.753 546.454L658.988 546.599C658.988 546.599 659.036 545.681 658.453 543.989C657.822 542.298 660.348 540.993 660.348 540.993C660.348 540.993 658.745 539.784 657.433 537.658C656.121 535.531 657.579 530.456 658.113 528.668C658.599 526.88 662.34 524.173 662.34 524.173C662.34 524.173 661.222 521.515 661.951 519.34C662.68 517.165 665.643 518.325 665.643 518.325C665.643 518.325 668.704 518.18 671.133 517.986C671.813 519.146 676.234 521.708 675.845 524.415C675.457 527.17 673.95 524.85 673.61 527.218C673.27 529.586 667.489 529.731 667.586 533.066C667.732 536.401 664.283 536.691 664.283 536.691C664.283 536.691 666.712 539.833 665.012 543.023C663.311 546.213 664.429 545.584 665.157 546.164C665.837 546.793 665.206 550.611 665.06 552.786C664.915 555.009 662.097 554.961 663.166 555.589C664.234 556.217 666.809 559.359 666.809 559.359C666.809 559.359 669.141 557.668 669.675 555.686C670.21 553.704 670.647 552.447 672.444 550.901C674.242 549.354 675.456 550.369 677.594 548.871C679.732 547.373 678.954 545.439 680.266 545.198C681.578 544.908 680.946 548.388 682.647 547.953C684.347 547.518 688.088 542.443 688.525 540.606C688.962 538.769 690.711 537.078 690.711 537.078C690.711 537.078 689.545 535.144 689.156 532.728C688.768 530.311 692.897 525.043 695.569 521.37C698.241 517.696 699.99 516.875 702.905 517.31C705.868 517.696 709.172 517.938 709.901 515.425C706.889 516.053 703.779 512.863 701.788 512.186Z" fill="#68BC8E"/>
<path d="M425.952 557.714C425.758 556.795 424.98 553.267 424.446 551.092C423.766 548.434 423.863 547.032 424.155 544.325C424.349 542.247 425.903 541.281 427.215 540.411C427.847 539.976 428.478 539.589 428.964 539.105C430.179 537.897 430.762 534.514 430.907 533.306C430.956 532.919 431.296 532.629 431.685 532.629C432.948 532.677 434.308 532.436 434.551 532.146C434.697 531.904 434.94 531.469 435.231 530.937C436.008 529.584 437.32 527.361 437.709 526.152C438.146 524.799 437.223 522.962 434.6 519.966C434.454 519.772 434.357 519.482 434.454 519.241C435.377 516.292 432.365 513.054 432.365 513.006C432.316 512.957 432.267 512.861 432.219 512.813L432.122 512.619C430.033 513.103 428.478 515.132 424.786 516.341C420.657 517.694 418.276 515.858 415.896 515.809C413.515 515.761 413.418 517.163 411.475 517.307C409.532 517.452 395.443 515.712 395.443 515.712C395.443 515.712 392.14 519.192 390.682 519.531C389.273 519.821 388.107 516.969 388.107 516.969C388.107 516.969 385.678 515.954 385.095 514.408C384.512 512.861 389.808 511.266 389.808 511.266L388.545 509.381C388.545 509.381 386.407 509.768 383.978 510.686C381.549 511.604 382.132 509.284 379.703 508.414C377.274 507.544 375.282 511.556 374.845 511.797C374.407 512.039 371.736 514.359 368.675 514.263C365.614 514.166 366.051 513.779 362.991 515.664C359.93 517.501 361.29 515.809 360.902 515.809C360.465 515.761 360.222 517.549 360.222 517.549C360.222 517.549 363.234 520.256 362.019 521.706C360.805 523.156 355.655 526.491 355.267 526.491C354.829 526.442 353.323 526.491 352.255 527.796C351.186 529.101 347.153 531.179 346.716 531.276C346.279 531.372 345.259 532.436 344.725 534.031C344.19 535.674 337.097 540.797 336.66 541.039C336.223 541.281 334.96 543.117 333.016 545.05C331.073 546.984 329.859 546.356 326.895 546.935C323.932 547.564 322.474 552.01 320.482 552.832C318.491 553.654 318.151 552.639 315.527 552.349C312.904 552.01 311.835 555.394 310.572 557.23C309.309 559.067 308.871 559.164 306.199 560.082C305.908 562.16 301.779 565.302 300.03 566.269C298.281 567.235 296.143 566.414 294.783 565.737C293.423 565.06 291.091 562.692 291.091 562.692L288.856 562.934L284.775 559.454L282.686 561.242L282.589 562.74L284.775 563.175C284.775 563.175 286.962 563.465 287.204 564.19C287.447 564.915 285.504 566.414 283.123 566.365C280.743 566.317 280.743 564.674 280.355 564.384C279.966 564.094 279.188 564.577 279.188 564.577C279.188 564.577 280.063 566.172 280.403 567.574C280.694 568.975 279.237 569.99 278.751 570.764C278.266 571.537 282.055 573.083 282.492 574.92C282.929 576.757 279.286 576.757 279.286 576.757L278.605 585.843C278.605 585.843 280.792 586.133 282.201 586.23C283.61 586.327 282.832 585.167 283.901 583.862C284.97 582.557 287.01 583.378 287.01 583.378C287.01 583.378 289.585 586.182 290.702 586.423C291.82 586.665 292.888 588.937 292.888 588.937C292.888 588.937 296.775 589.227 298.038 588.888C299.301 588.55 301.39 585.263 301.585 584.442C301.779 583.62 302.362 581.735 304.014 581.687C305.665 581.687 303.382 584.828 302.022 586.23C300.661 587.632 301.876 588.018 301.876 588.018L303.722 589.662H305.52C305.52 589.662 305.519 585.795 306.54 585.022C307.56 584.248 308.143 587.777 308.143 587.777C308.143 587.777 309.066 588.695 309.6 588.695C310.135 588.743 310.718 586.713 312.418 586.423C314.118 586.133 313.633 590.532 313.633 590.532L314.847 591.16C314.847 591.16 315.333 586.327 316.353 585.747C317.373 585.118 316.887 589.807 316.839 590.242C316.79 590.677 317.519 590.29 319.802 589.758C322.086 589.227 319.559 593.045 319.559 593.045C319.559 593.045 321.746 591.692 322.863 593.287C323.98 594.882 326.215 594.93 328.79 595.945C331.365 596.96 332.919 600.536 332.919 600.536C332.919 600.536 331.996 598.12 330.539 595.075C329.081 592.078 332.919 593.045 335.3 590.967C337.68 588.937 335.737 587.1 335.931 582.702C336.126 578.303 337.097 577.917 337.826 576.032C338.506 574.147 341.129 571.15 346.133 571.102C347.882 568.299 350.797 569.942 351.186 572.165C351.574 574.389 350.408 573.228 350.943 575.355C351.477 577.482 355.461 579.85 357.404 580.382C359.347 580.913 358.667 582.267 360.173 584.442C361.679 586.617 362.068 584.973 364.643 584.055C367.217 583.137 365.177 582.315 363.525 582.315C361.874 582.315 360.902 581.687 360.27 580.817C359.639 579.947 359.59 578.69 359.979 577.047C360.367 575.403 362.311 575.838 364.983 575.21C367.655 574.582 370.084 575.838 373.29 574.292C376.448 572.745 374.067 573.084 377.42 573.229C380.772 573.325 380.237 572.6 382.763 572.503C385.29 572.407 387.816 575.645 387.962 575.258C388.107 574.872 388.788 573.663 389.03 572.407C389.273 571.198 387.67 569.797 388.787 568.25C389.856 566.655 391.119 568.443 394.131 569.313C397.143 570.232 396.026 567.912 399.427 567.622C402.779 567.332 403.848 573.905 406.034 572.697C408.22 571.488 412.058 572.02 412.058 572.02C412.058 572.02 413.661 569.217 413.272 568.782C412.884 568.347 412.446 568.444 410.455 569.41C408.414 570.377 410.406 566.075 412.738 564.722C415.07 563.369 417.548 567.284 417.548 567.284C417.548 567.284 420.511 566.51 420.511 564.867C420.511 563.224 420.365 562.789 423.231 562.305C426.049 561.822 426.681 559.212 426.681 559.212C426.681 559.212 425.029 558.922 423.086 557.472C421.24 556.554 423.426 557.375 425.952 557.714Z" fill="#F0C996"/>
<path d="M537.976 579.801C535.887 578.158 533.604 576.321 529.815 574.388C526.074 572.455 527.823 571.101 526.9 571.053C525.977 571.005 525.345 572.213 522.819 570.763C520.293 569.265 523.693 566.945 523.305 564.721C522.916 562.498 528.454 557.906 529.717 555.973C530.981 554.04 531.515 549.062 531.515 549.062C531.515 549.062 532.05 549.013 532.681 548.916C531.564 546.355 529.815 545.292 529.523 545.147C528.357 544.47 526.56 544.373 526.56 544.373L520.341 543.165C519.953 543.117 519.71 542.778 519.758 542.392L519.953 539.782C519.661 539.298 518.69 537.993 517.864 536.833C517.669 536.543 517.669 536.157 517.912 535.915C518.155 535.625 519.418 534.175 520.39 533.74C520.487 533.498 520.438 532.677 520.293 531.952L518.69 530.792C518.593 530.743 518.495 530.647 518.447 530.55L518.204 530.067C518.009 529.728 518.155 529.294 518.495 529.1L519.224 528.617L519.613 523.204C519.224 523.059 518.641 522.914 517.912 522.914C517.475 522.914 517.086 522.72 516.746 522.43C515.872 521.512 515.775 519.579 515.775 518.757L513.103 515.47C512.471 515.277 511.743 515.132 511.597 515.277C511.402 515.519 511.159 517.017 511.159 518.419C511.159 518.612 511.111 518.757 510.965 518.902C510.965 518.902 509.119 520.98 508.439 521.754C507.953 522.285 506.933 522.575 505.281 522.962C504.504 523.155 503.338 523.445 503.095 523.639C502.269 524.364 494.934 530.888 494.01 531.903C492.65 533.305 489.201 533.16 486.723 532.242C483.566 531.13 479.728 528.52 479.193 524.943C478.805 522.092 478.659 519.627 478.659 518.805L477.201 517.21C475.744 518.564 475.015 516.679 475.015 516.679L475.404 518.805C475.404 518.805 478.319 520.545 475.258 520.594C472.198 520.642 473.898 523.832 472.781 523.88C471.663 523.928 472.829 521.125 472.829 521.125C472.829 521.125 472.78 519.579 472.392 519.579C471.955 519.53 471.469 520.642 470.157 519.82C468.845 519.047 470.983 518.37 470.983 518.37L469.671 517.162L465.736 521.174C465.736 521.174 465.105 520.304 464.91 519.192C464.716 518.08 468.651 516.002 468.651 516.002C468.651 516.002 469.429 514.794 469.234 512.039C469.04 509.235 471.129 510.927 471.129 510.927C471.129 510.927 473.315 511.217 473.558 510.395C473.752 509.574 469.963 506.094 469.963 506.094C469.963 506.094 464.182 508.704 463.453 509.38C462.724 510.009 461.607 509.815 460.489 509.864C459.372 509.912 457.915 512.715 457.915 512.715C457.915 512.715 456.117 514.262 454.903 514.02C453.688 513.779 453.542 509.912 450.433 510.25C447.324 510.589 440.425 509.815 440.425 509.815C440.425 509.815 436.345 512.087 433.721 512.619C434.547 513.634 436.636 516.534 435.956 519.53C438.774 522.817 439.697 524.944 439.114 526.829C438.677 528.182 437.365 530.453 436.49 531.903C436.199 532.387 435.956 532.822 435.81 533.063C435.276 534.078 433.478 534.272 432.264 534.32C432.069 535.722 431.438 538.863 429.981 540.313C429.349 540.942 428.669 541.377 427.989 541.812C426.58 542.73 425.705 543.31 425.608 544.615C425.365 547.225 425.268 548.482 425.9 550.898C426.434 553.073 427.211 556.602 427.454 557.52L427.989 558.003C429.98 558.1 431.001 558.051 431.001 558.051L435.227 556.312C435.227 556.312 437.171 557.568 438.142 557.085C439.114 556.601 444.069 557.326 447.324 558.486C450.579 559.646 450.822 561.338 451.356 561.531C451.891 561.773 453.056 563.706 455.631 564.238C458.206 564.818 455.534 567.911 454.757 568.25C453.98 568.54 446.79 575.403 446.693 576.901C446.595 578.351 443.389 578.689 443.389 578.689L441.154 581.106L443.146 584.586L442.806 589.178L444.36 588.356C444.36 588.356 447.178 587.824 447.761 587.486C448.344 587.148 449.51 586.326 449.753 585.794C449.996 585.263 452.182 585.601 452.182 585.601L453.931 584.248L451.356 581.01L451.696 576.418L458.741 569.361L458.983 566.075L464.23 565.543L466.805 563.126C466.805 563.126 470.303 560.806 472.538 561.145C474.724 561.483 478.124 563.755 478.124 563.755C478.124 563.755 479.145 567.331 477.299 569.603C475.452 571.875 471.372 574.34 471.372 574.34C471.372 574.34 471.372 577.095 469.234 578.255C467.097 579.414 467.242 580.333 465.153 580.913C463.064 581.493 460.975 582.459 460.975 582.459L460.004 585.359C460.004 585.359 461.947 589.033 463.064 591.691C464.182 594.349 460.684 593.721 460.684 593.721C460.684 593.721 460.732 595.751 461.704 597.298C462.724 598.844 460.538 600.343 460.538 600.343C460.538 600.343 459.323 601.551 459.226 603.194C459.081 604.838 456.652 607.641 456.652 607.641C456.652 607.641 459.178 606.336 461.218 606.336C463.259 606.287 462.918 610.879 462.918 610.879H467.922C467.922 610.879 472.635 612.716 472.975 615.132C473.363 617.549 470.303 616.051 470.303 616.051C470.303 616.051 470.011 617.307 470.109 618.999C470.206 620.691 472.343 623.977 473.266 623.832C474.189 623.736 475.161 625.814 476.376 627.216C477.59 628.617 481.865 628.521 484.003 629.632C484.003 629.632 484.149 632.967 484.926 632.097C485.752 631.227 490.804 630.696 490.804 630.696L489.784 629.681C489.784 629.681 489.201 627.602 489.978 626.926C490.755 626.249 492.942 627.312 493.768 626.104C494.593 624.896 496.925 623.397 496.925 623.397L496.391 620.594L498.966 620.787L496.634 616.921L499.889 615.857C499.889 615.857 500.909 609.477 502.998 608.897C505.087 608.317 506.107 606.529 506.107 606.529C506.107 606.529 504.698 603.823 506.35 603.243C508.002 602.614 508.633 605.804 508.633 605.804C508.633 605.804 510.334 602.614 510.188 602.034C510.042 601.454 509.265 599.569 507.37 597.588C505.476 595.606 509.265 594.398 510.091 595.751C510.917 597.104 513.832 598.071 513.832 598.071L514.463 596.814C514.463 596.814 514.56 595.364 512.811 593.721C511.062 592.126 515.095 590.579 518.155 591.691C518.301 589.468 521.799 589.903 522.285 588.501C522.771 587.051 525.637 588.356 525.637 588.356L527.532 587.921L526.948 583.426C526.948 583.426 529.62 582.508 531.029 583.378C532.438 584.199 530.3 585.746 530.3 585.746C530.3 585.746 531.175 586.713 532.05 587.148C532.924 587.583 536.422 585.988 536.422 585.988C536.422 585.988 537.588 587.534 535.839 589.081C534.041 590.628 533.167 589.806 534.235 590.434C535.304 591.063 538.559 589.806 539.58 588.259C540.648 586.664 538.657 583.378 538.657 583.378C538.657 583.378 540.114 581.445 537.976 579.801Z" fill="#D1DFA1"/>
<path d="M631.885 551.044C630.816 550.609 631.205 547.66 631.205 547.66C631.205 547.66 632.759 546.645 633.682 546.549C634.605 546.452 636.209 545.05 636.209 545.05L634.654 542.972C634.411 542.924 634.168 542.875 633.925 542.827C629.942 542.295 628.339 540.894 628.581 538.187C628.679 536.689 629.893 535.964 630.719 535.48C630.913 535.335 631.253 535.19 631.399 535.046C631.35 534.997 631.302 534.997 631.302 534.949C630.816 534.562 630.039 533.934 629.407 532.242C628.436 529.632 631.399 528.376 633.536 527.409C634.265 527.071 634.945 526.781 635.334 526.539C636.257 525.911 636.209 524.751 636.063 523.301C636.014 522.962 636.014 522.672 636.014 522.382C636.014 521.464 633.439 518.999 630.962 516.631C627.804 513.586 622.314 509.333 622.266 509.284C622.169 509.236 621.926 509.042 618.039 504.064C617.893 503.919 617.845 503.678 617.894 503.484L618.428 500.729L613.181 494.398C613.132 494.301 613.084 494.204 613.035 494.108L612.647 492.803C612.598 492.561 612.647 492.271 612.841 492.078C613.57 491.304 614.736 489.903 614.833 489.323C614.93 488.839 614.201 488.163 613.91 487.921C613.618 487.679 613.521 487.293 613.716 486.955C613.91 486.665 614.833 485.069 615.61 484.586C615.707 484.441 615.805 483.571 615.756 482.798C615.367 481.541 614.444 479.56 613.424 479.27C612.307 478.98 610.752 479.56 610.023 479.85C609.586 479.995 609.392 480.091 609.149 480.091C608.275 480.043 607.692 478.448 607.643 478.206C607.449 477.53 607.74 477.143 607.934 476.998C608.08 476.708 608.226 475.548 607.643 474.63C606.817 473.325 607.4 471.391 607.74 470.376C607.788 470.183 607.837 470.038 607.886 469.941C607.934 468.975 609.926 467.67 611.141 467.283C611.189 467.283 611.238 467.235 611.287 467.235C611.287 467.138 611.287 467.041 611.287 466.945C611.238 466.51 611.189 465.833 611.432 464.866C612.064 462.498 615.853 461.29 618.234 461.338C619.983 461.386 621.974 461.58 622.654 461.676C622.849 461.531 623.092 461.338 623.14 461.193C623.189 461.048 623.237 460.806 623.335 460.516C623.529 459.695 623.869 458.438 624.5 457.423C625.181 456.408 626.152 456.408 626.93 456.36C627.464 456.36 627.95 456.311 628.436 456.07C628.873 455.828 628.873 455.538 628.824 454.475C628.776 453.798 628.679 453.025 628.873 452.106C629.407 449.593 632.031 448.772 634.265 448.82C635.48 448.868 636.791 446.742 637.18 446.017C637.277 445.823 637.423 445.678 637.617 445.63C637.812 445.582 638.006 445.582 638.2 445.678C638.298 445.727 640.192 446.838 641.018 448.675C641.212 449.11 641.553 449.642 641.941 450.173C641.407 447.853 640.338 445.388 639.609 443.938C638.735 442.15 639.172 441.038 639.512 440.023C639.706 439.54 639.852 439.105 639.901 438.573C639.949 437.897 639.706 437.462 639.415 436.882C639.026 436.205 638.589 435.432 638.589 434.078C638.589 432.483 639.415 431.903 640.046 431.468C640.532 431.13 640.775 430.937 640.872 430.405C640.969 429.777 640.872 429.149 640.775 428.52C640.63 427.457 640.435 426.2 641.407 425.233C642.232 424.412 643.496 424.509 644.905 424.557C646.119 424.605 647.382 424.702 648.062 424.122C648.645 423.687 649.18 423.204 649.763 422.672C650.929 421.657 652.289 420.497 654.183 419.192C654.281 418.805 654.378 418.467 654.475 418.08C654.766 416.775 655.107 415.277 656.078 413.537C656.855 412.135 657.438 410.444 658.167 408.559C658.556 407.447 658.993 406.287 659.479 405.03C660.305 402.904 659.916 402.131 659.139 400.681C658.799 400.052 658.459 399.376 658.118 398.457C657.341 396.186 658.41 393.431 659.333 390.966C659.77 389.806 660.208 388.694 660.305 387.921C660.548 386.229 661.276 385.262 662.102 384.151C662.637 383.426 663.22 382.652 663.803 381.541C663.171 380.719 662.442 379.897 661.714 379.027C659.965 376.997 658.167 374.919 656.953 372.406C656.467 371.439 656.078 370.811 655.641 370.231C655.641 370.328 655.592 370.424 655.592 370.521C654.961 373.131 653.115 373.662 652.969 376.031C652.775 378.351 652.435 379.752 651.269 381.879C650.151 384.006 650.88 387.244 650.88 387.244C650.88 387.244 646.508 390.096 646.07 391.739C645.682 393.382 644.856 394.977 640.532 396.621C636.257 398.264 629.65 402.179 627.804 404.692C625.958 407.205 624.452 412.087 623.869 414.359C623.286 416.679 616.145 420.884 615.173 422.382C614.201 423.929 613.715 427.167 610.558 428.327C607.4 429.487 607.594 430.743 604.534 434.513C601.473 438.283 598.655 438.525 595.741 438.573C592.826 438.622 591.514 439.105 586.461 443.455C581.555 443.648 577.328 448.337 577.328 448.337C577.328 448.337 570.527 447.708 567.709 448.482C564.843 449.255 564.891 450.753 565.329 454.523C565.766 458.293 561.831 458.438 558.382 458.051C554.932 457.665 552.892 457.23 551.094 455.151C549.297 453.073 546.965 454.571 546.528 453.17C546.091 451.768 547.888 449.932 547.888 449.932C547.888 449.932 550.269 447.757 550.609 447.37C550.9 446.983 549.734 442.44 549.734 442.44L548.034 442.875L546.334 444.953C546.334 444.953 544.002 440.893 543.322 440.313C542.69 439.733 542.155 438.863 542.496 438.428C542.787 438.042 543.079 436.253 543.759 434.755C544.439 433.257 544.779 434.127 545.07 435.963C545.362 437.8 544.39 439.443 544.39 439.443L545.848 440.168C545.848 440.168 549.588 440.603 550.171 439.878C550.803 439.153 551.58 435.915 551.58 435.915L553.378 434.223C553.378 434.223 554.155 431.517 555.661 429.825C557.167 428.134 558.916 429.245 558.916 428.81C558.965 428.375 559.45 426.925 559.207 424.654C558.965 422.43 561.054 424.219 561.054 424.219C561.054 424.219 563.871 424.025 563.92 423.3C563.969 422.624 565.475 419.53 565.475 419.53C565.475 419.53 563.094 417.694 562.414 417.355C561.734 417.017 561.296 417.404 561.296 417.404C561.296 417.404 558.236 417.597 556.098 417.935C553.961 418.274 552.649 421.077 552.26 421.174C551.823 421.27 550.123 423.494 547.645 423.349C545.167 423.155 543.71 423.88 541.767 425.572C539.824 427.215 537.2 426.78 537.2 426.78C537.2 426.78 537.055 430.357 536.909 430.792C536.763 431.179 532.877 436.157 532.877 436.157L534.917 438.718L536.472 436.543C536.472 436.543 537.735 438.573 537.686 438.912C537.637 439.25 535.937 442.053 535.937 442.053L538.56 444.035C538.56 444.035 539.095 446.452 538.949 448.095C538.803 449.738 537.492 450.898 537.492 450.898C537.492 450.898 538.366 452.058 538.026 453.17C537.686 454.233 532.877 458.873 532.877 458.873C532.877 458.873 532.051 460.758 531.856 463.223C531.662 465.688 526.755 470.183 526.755 470.183C526.755 470.183 517.088 480.43 514.756 481.493C514.756 481.493 511.792 482.266 510.966 482.169C510.141 482.121 510.238 484.586 510.238 484.586L507.614 486.181L505.137 491.691L500.765 496.089C500.765 496.089 501.007 498.603 502.416 500.246C503.825 501.889 508.829 505.998 508.829 505.998L508.78 510.299C508.78 510.299 505.866 513.972 505.04 513.489C504.262 513.006 504.019 506.916 504.019 506.916L501.59 507.834C501.59 507.834 500.91 509.332 501.688 510.589C502.416 511.894 500.862 512.184 500.862 512.184C500.862 512.184 498.578 515.084 497.267 515.374C496.003 515.713 495.323 513.683 495.323 513.683L494.157 514.311C494.157 514.311 494.595 516.147 493.914 517.597C493.234 519.096 491.048 516.679 491.048 516.679L488.036 517.694C488.036 517.694 489.834 519.482 487.696 520.159C485.559 520.836 486.19 517.839 486.19 517.839C486.19 517.839 483.664 518.081 481.866 515.857C480.069 513.634 481.526 512.909 480.701 512.861C479.923 512.812 479.826 513.441 478.271 515.664L480.069 517.646C480.215 517.791 480.263 517.936 480.263 518.129C480.263 518.177 480.312 520.981 480.797 524.364C481.235 527.312 484.587 529.487 487.356 530.454C489.882 531.324 492.409 531.179 493.089 530.454C494.109 529.391 501.542 522.769 502.319 522.141C502.805 521.754 503.679 521.512 505.088 521.126C505.914 520.932 507.226 520.594 507.469 520.352C508.052 519.724 509.363 518.226 509.801 517.694C509.849 516.099 510.092 514.214 510.821 513.634C511.744 512.957 513.444 513.537 513.93 513.731C514.027 513.779 514.173 513.827 514.221 513.972L517.185 517.597C517.282 517.742 517.379 517.887 517.331 518.081C517.331 518.999 517.476 520.546 517.914 520.981C517.962 521.029 518.011 521.029 518.011 521.029C519.663 521.077 520.78 521.657 520.829 521.657C521.071 521.802 521.217 522.092 521.217 522.334L520.731 528.666C520.731 528.907 520.586 529.101 520.391 529.246L520.051 529.487L521.46 530.502C521.606 530.599 521.703 530.744 521.752 530.937C521.995 531.904 522.432 534.127 521.12 534.707C520.731 534.852 520.051 535.529 519.517 536.061C521.606 538.912 521.606 538.96 521.557 539.299L521.412 541.474L526.901 542.537C526.901 542.537 528.941 542.682 530.399 543.504C530.739 543.697 532.974 545.05 534.285 548.289C534.674 548.192 535.014 548.047 535.208 547.854C535.986 547.177 536.617 543.891 538.464 544.229C540.31 544.567 537.832 550.27 536.909 552.445C535.986 554.62 538.026 557.134 538.172 560.469C538.318 563.804 537.832 562.644 540.066 564.142C542.301 565.592 544.196 566.849 544.196 566.849C544.196 566.849 541.961 564.674 540.795 562.354C539.678 560.034 541.087 553.702 542.593 553.074C544.147 552.445 545.556 553.267 544.682 554.91C543.807 556.505 543.564 559.647 544.293 560.42C544.973 561.194 548.52 563.707 551.775 562.45C551.823 559.502 554.252 559.115 557.119 560.275C559.985 561.435 557.556 564.577 557.556 564.577C557.556 564.577 558.868 564.674 559.11 566.365C559.353 568.057 555.807 565.737 555.807 565.737C555.807 565.737 551.24 567.428 549.054 568.927C546.917 570.425 546.334 568.153 546.334 568.153L543.467 572.02C543.467 572.02 545.022 573.422 545.799 573.132C546.576 572.842 557.556 569.748 560.228 569.023C562.9 568.298 565.183 567.525 565.183 567.525C565.183 567.525 565.62 564.045 567.32 563.417C569.021 562.788 568.778 568.685 571.693 569.845C574.559 570.957 581.312 568.154 584.761 569.12C588.21 570.135 593.506 574.002 594.623 571.682C592.243 568.54 598.995 565.35 601.376 563.514C603.756 561.677 601.473 559.454 601.862 556.699C602.25 553.944 608.323 554.765 607.74 552.88C604.485 549.304 610.218 546.984 613.472 545.727C616.727 544.47 623.237 546.79 623.092 550.319C622.946 553.799 617.748 550.85 617.748 550.85L617.213 558.004C617.213 558.004 618.088 561.387 618.476 563.465C618.865 565.543 616.582 566.462 616.582 566.462C616.582 566.462 620.371 572.648 623.286 573.808C623.966 572.358 629.601 571.488 629.601 571.488C629.601 571.488 629.456 570.763 628.97 567.767C628.435 564.77 633.78 562.74 633.78 562.74L636.014 557.714C636.014 557.714 634.897 555.394 633.197 553.267C631.302 551.334 632.954 551.479 631.885 551.044Z" fill="#AAD170"/>
<path d="M755.282 319.046C753.824 316.436 758.294 315.953 758.294 315.953L756.399 311.651C756.399 311.651 753.97 314.503 752.221 311.361C750.521 308.171 754.65 308.51 753.436 306.48C752.173 304.45 755.816 304.16 755.816 304.16C755.816 304.16 755.136 298.553 753.533 297.345C751.93 296.137 753.824 293.188 753.824 293.188C753.824 293.188 752.561 291.69 749.355 289.805C746.148 287.92 751.007 286.035 751.007 286.035C751.007 286.035 750.278 284.585 748.48 282.265C746.683 279.897 750.181 277.964 750.181 277.964L740.076 263.657C740.076 263.657 737.112 266.219 734.975 264.962C732.837 263.705 736.869 261.772 736.869 261.772C736.869 261.772 735.12 255.537 734.392 253.556C733.712 251.574 734.635 250.269 734.635 250.269C734.635 250.269 734.149 245.242 733.469 243.261C732.789 241.279 733.76 239.104 733.76 239.104C733.76 239.104 733.663 233.014 733.663 225.523C733.663 218.031 735.072 221.221 735.072 221.221L735.412 216.629C735.412 216.629 731.234 220.303 728.416 220.641C725.599 220.979 721.469 216.533 718.214 215.179C714.959 213.826 716.368 211.893 713.016 210.346C710.879 209.379 711.121 215.324 711.121 215.324C711.121 215.324 710.004 217.064 709.033 217.258C708.061 217.451 707.672 222.429 707.672 222.429L706.652 223.299L706.895 233.014L707.721 233.352C707.721 233.352 708.935 231.902 709.858 230.742C710.781 229.582 713.745 229.341 715.591 228.809C717.437 228.229 717.971 227.021 718.992 225.861C720.06 224.701 722.198 227.746 722.198 227.746C722.198 227.746 722.344 225.523 724.433 224.024C726.473 222.526 727.93 227.311 727.979 230.404C728.028 233.449 724.87 235.044 724.87 235.044C724.87 235.044 724.724 240.554 724.433 242.632C724.141 244.711 722.732 246.789 719.332 245.871C715.931 244.904 710.684 240.264 710.684 240.264L707.964 242.971C707.964 242.971 709.033 243.889 707.527 245.291C706.021 246.692 702.96 244.807 700.822 239.829C698.685 234.851 701.114 230.307 699.997 228.132C698.879 225.957 696.79 226.489 696.79 226.489C696.79 226.489 696.304 227.697 696.061 228.906C695.818 230.114 694.409 230.597 693.049 229.921C691.689 229.244 691.495 226.634 690.523 226.296C689.552 225.957 688.774 231.032 688.58 231.951C688.385 232.917 685.957 233.836 685.957 233.836L688.094 234.947L688.24 236.494C688.24 236.494 689.892 236.494 692.369 237.364C694.798 238.234 689.454 239.249 689.454 239.249L687.657 240.796L686.88 247.804C686.88 247.804 683.916 250.076 681.876 251.574C679.835 253.072 679.932 251.429 677.941 250.317C675.949 249.206 672.888 254.812 670.848 257.567C668.856 260.322 668.613 261.434 668.613 261.434L671.479 262.497C671.479 262.497 671.285 263.029 671.722 268.49C672.16 273.904 674.2 268.925 677.746 271.729C681.293 274.532 678.038 280.912 672.84 285.358C667.641 289.805 668.856 292.125 667.399 292.995C665.941 293.865 664.775 292.657 663.561 291.883C662.346 291.11 661.52 293.237 661.86 294.252C662.2 295.267 663.658 298.408 663.658 298.408C663.658 298.408 666.718 300.293 668.273 297.925C669.828 295.557 670.848 297.007 670.848 297.007L671.674 295.557C671.674 295.557 670.896 294.542 670.896 292.995C670.848 291.448 672.062 291.98 673.131 292.898C674.2 293.817 677.649 293.768 677.649 293.768C677.649 293.768 677.212 296.088 676.435 296.862C675.657 297.635 674.589 295.605 673.568 295.798C672.597 295.992 674.783 299.762 674.929 300.197C675.026 300.632 677.6 301.502 677.6 303.29C677.6 305.078 676.24 304.692 676.435 305.997C676.629 307.253 676.92 312.425 676.677 316.002C676.434 319.578 674.248 326.345 673.763 327.021C673.277 327.698 670.071 329.68 668.71 331.516C667.301 333.353 669.196 338.186 669.196 338.186C669.196 338.186 666.524 340.506 665.212 345.098C663.901 349.689 664.241 354.571 664.241 354.571C664.241 354.571 662.2 357.616 660.986 358.921C659.771 360.226 659.528 362.014 659.237 363.513C658.994 365.011 656.079 366.316 656.079 366.316C656.079 366.316 656.03 367.137 655.788 368.491C655.933 368.684 656.079 368.877 656.225 369.071C656.808 369.844 657.439 370.666 658.071 372.019C659.188 374.339 660.937 376.369 662.638 378.302C663.512 379.317 664.338 380.284 665.115 381.251C665.261 381.492 665.309 381.782 665.164 382.024C664.435 383.474 663.706 384.441 663.123 385.262C662.346 386.326 661.812 387.051 661.617 388.404C661.472 389.371 661.034 390.531 660.548 391.787C659.674 394.011 658.702 396.524 659.334 398.264C659.625 399.085 659.965 399.762 660.257 400.342C661.034 401.889 661.763 403.194 660.646 405.9C660.16 407.109 659.723 408.269 659.334 409.38C658.605 411.362 658.022 413.102 657.148 414.6C656.274 416.195 655.982 417.5 655.69 418.757C655.593 419.288 655.448 419.772 655.302 420.207C655.253 420.352 655.156 420.497 655.01 420.593C653.067 421.898 651.707 423.107 650.492 424.122C649.909 424.654 649.326 425.137 648.743 425.62C647.577 426.538 646.023 426.442 644.565 426.345C643.642 426.297 642.574 426.248 642.185 426.587C641.748 427.022 641.796 427.602 641.942 428.617C642.039 429.342 642.185 430.115 642.039 430.937C641.845 432.097 641.116 432.58 640.582 432.918C640.047 433.305 639.756 433.498 639.756 434.32C639.756 435.238 640.096 435.818 640.387 436.398C640.728 437.027 641.165 437.8 641.068 438.912C641.019 439.637 640.776 440.217 640.582 440.748C640.242 441.618 639.999 442.247 640.63 443.503C641.65 445.581 643.302 449.448 643.399 452.59C643.837 453.025 644.225 453.46 644.517 453.75C645.343 454.475 646.46 455.345 647.043 455.78C648.549 454.523 652.921 450.898 653.359 450.608C653.65 450.415 653.99 450.366 654.622 450.221C655.69 449.98 657.294 449.69 658.994 448.626C660.111 447.95 661.18 447.128 662.152 446.452C663.561 445.437 664.629 444.663 665.407 444.373C666.572 443.987 670.459 442.778 670.459 442.778C670.556 442.778 670.605 442.73 670.702 442.73C670.945 442.73 676.726 442.827 679.689 443.407C682.458 443.938 683.77 446.742 684.451 448.095C684.548 448.337 684.645 448.578 684.742 448.675C684.985 449.061 685.568 450.173 686.199 451.478C686.88 452.783 687.608 454.281 688.094 455.055C688.969 456.553 691.981 459.55 693.924 460.371C694.361 460.565 694.507 460.516 694.555 460.468C694.749 460.371 694.993 459.743 695.138 459.211C695.284 458.68 695.478 458.051 695.818 457.471C696.11 456.94 696.256 456.408 696.353 455.876C696.547 454.958 696.742 453.943 698.102 453.266C699.851 452.348 701.308 453.653 702.717 454.91C703.154 455.296 703.591 455.683 704.077 456.021C704.223 456.118 704.32 456.215 704.466 456.263C704.855 455.006 705.146 454.088 705.34 453.75C706.215 451.962 709.275 453.315 709.275 453.315L714.619 449.11C714.619 449.11 714.036 446.645 714.279 443.552C714.522 440.41 717.194 439.347 715.639 437.752C714.085 436.157 717.194 434.562 717.631 433.643C718.068 432.773 716.805 409.912 716.465 409.187C716.174 408.414 713.648 406.964 712.482 405.03C711.316 403.097 712.385 398.554 712.385 398.554C712.385 398.554 711.705 397.394 710.927 395.654C710.15 393.914 713.405 394.735 713.405 394.735C713.405 394.735 712.385 393.721 712.045 390.579C711.704 387.437 717.874 381.782 717.874 381.782C717.874 381.782 716.757 382.072 715.202 380.477C713.648 378.882 717.728 378.834 719.234 376.321C720.74 373.856 721.469 375.934 722.392 379.124C723.753 376.079 728.951 378.302 728.951 378.302C728.951 378.302 730.797 378.641 731.866 376.852C732.934 375.064 732.546 380.429 732.546 380.429C732.546 380.429 734.197 383.136 737.161 383.184C740.124 383.232 737.258 382.072 736.335 379.414C735.412 376.756 736.335 376.804 734.78 375.257C733.226 373.662 731.817 372.841 732.934 370.134C734.052 367.427 734.878 371.391 735.752 372.019C736.627 372.647 738.375 371.681 737.452 369.168C736.529 366.654 735.752 366.992 736.772 365.591C737.792 364.189 736.286 364.624 734.926 362.691C733.566 360.757 736.238 362.401 737.841 361.048C739.444 359.694 738.958 360.758 740.124 360.468C741.242 360.178 740.464 358.293 739.93 357.858C739.396 357.471 737.841 356.021 739.056 354.813C740.27 353.604 739.104 351.478 739.104 351.478C739.104 351.478 742.553 352.493 742.991 351.768C743.428 351.043 742.213 350.028 740.659 348.288C739.104 346.499 739.396 345.436 741.096 344.614C742.845 343.841 742.991 346.789 742.991 346.789L745.08 346.209C745.08 346.209 743.768 343.889 744.399 342.633C745.031 341.376 747.314 343.599 747.314 343.599C747.314 343.599 746.537 341.521 747.169 340.458C747.8 339.395 748.918 342.053 749.063 342.633C749.209 343.213 751.444 342.826 752.27 342.149C753.047 341.473 751.784 340.99 749.695 339.395C748.189 338.235 750.569 337.655 752.124 337.413C751.59 337.413 750.958 337.364 750.278 337.026C748.675 336.349 753.533 333.498 753.533 333.498L753.436 332.096C753.436 332.096 751.59 334.368 750.035 332.773C748.48 331.178 754.699 329.97 754.699 329.97L754.844 328.133C754.844 328.133 753.095 328.906 751.978 326.635C751.055 324.75 753.727 325.475 754.796 325.813C754.504 325.62 754.164 325.185 754.067 324.025C753.824 321.995 757.565 324.266 757.565 324.266L757.759 321.318C757.905 321.173 756.788 321.656 755.282 319.046Z" fill="#BCDFE5"/>
<path d="M752.318 337.268C752.998 337.268 753.436 337.123 753.436 337.123C753.436 337.123 752.901 337.171 752.318 337.268Z" fill="#B3BFE8"/>
<path d="M755.326 325.815C755.326 325.815 755.18 325.767 754.938 325.67C755.18 325.815 755.326 325.815 755.326 325.815Z" fill="#B3BFE8"/>
<path d="M158.022 79.6366C159.577 81.1832 160.16 81.6183 160.645 81.8116C161.131 82.0049 163.318 80.2649 163.318 80.2649C163.318 80.2649 163.852 78.8149 165.504 78.7666C167.155 78.6699 165.115 75.625 165.115 75.625L162.395 75.9634C162.395 75.9634 163.026 77.075 161.326 77.0267C159.625 76.9784 158.314 77.6067 158.314 77.6067C158.314 77.6067 156.808 78.4282 158.022 79.6366Z" fill="#B4B4B4"/>
<path d="M144.563 73.1121C143.932 73.8371 146.798 70.6955 146.798 70.6955L146.506 68.1338C146.506 68.1338 149.567 67.6506 150.247 68.5206C150.927 69.3906 149.956 74.2722 149.956 74.2722L146.555 75.9639C146.555 75.9639 145 76.0122 144.369 76.8338C143.737 77.6071 141.211 80.4104 141.211 80.4104L137.567 80.8454L137.907 83.8904C137.907 83.8904 136.11 85.6304 135.624 86.6454C135.139 87.6604 134.118 88.9652 134.118 88.9652L131.543 89.2554L129.26 88.1921L128.046 84.7603L122.41 83.407L122.07 80.6522C122.07 80.6522 125.616 79.492 126.637 78.8637C127.657 78.2837 128.337 76.0605 129.843 75.6255C131.349 75.1905 133.293 75.4805 133.293 75.4805C133.293 75.4805 134.701 74.1272 136.159 73.8372C137.616 73.5472 139.511 72.3871 139.511 72.3871L140.482 70.5989L144.952 69.9705C144.952 69.9705 146.263 71.1305 144.563 73.1121Z" fill="#B4B4B4"/>
<path d="M110.654 98.1953C113.52 97.3737 114.832 100.08 114.832 100.08C114.832 100.08 114.298 100.515 115.026 101.82C115.804 103.174 117.455 106.074 117.261 106.799C117.115 107.524 114.492 107.137 114.492 107.137L113.909 109.699L112.16 110.859L109.877 109.602C109.877 109.602 109.78 106.75 109.294 104.817C108.808 102.787 105.018 99.7903 110.654 98.1953Z" fill="#B4B4B4"/>
<path d="M89.4229 125.359L91.7064 127.679L94.6211 127.921C94.6211 127.921 95.6413 126.374 96.37 125.359C97.0987 124.344 100.159 124.102 100.159 124.102L101.228 123.039L99.5765 120.042L96.5159 120.381C96.5159 120.381 96.127 121.976 95.1068 122.072C94.0866 122.169 91.1232 122.072 91.1232 122.072L89.2773 123.474L89.4229 125.359Z" fill="#B4B4B4"/>
<path d="M83.981 138.942C85.0984 138.072 85.9244 137.396 85.9244 137.396L87.7218 139.667L87.4787 142.76L86.3128 143.63L83.2522 142.422C83.3007 142.47 81.9892 140.489 83.981 138.942Z" fill="#B4B4B4"/>
<path d="M60.1782 142.565C62.5101 144.305 64.3564 139.327 66.4454 138.167C68.5344 137.007 65.7653 135.412 64.0649 136.33C62.4132 137.2 57.5548 140.584 60.1782 142.565Z" fill="#B4B4B4"/>
<path d="M0.0814645 172.34C0.615856 171.18 1.53912 169.537 3.04514 169.15C4.55115 168.715 6.10547 170.794 6.10547 170.794C6.10547 170.794 6.97997 172.099 6.44558 173.5C5.91118 174.854 4.79398 176.642 4.79398 176.642L3.28798 176.207C3.28798 176.207 3.57949 174.612 2.70503 174.129C1.78199 173.694 -0.452928 173.597 0.0814645 172.34Z" fill="#B4B4B4"/>
<path d="M49.4841 186.404C47.1522 186.887 45.1118 185.824 44.9175 183.117C44.7232 180.411 47.638 177.704 47.638 177.704C47.638 177.704 50.1643 175.964 49.4841 174.031C48.7554 172.097 48.6096 169.632 49.4355 168.472C50.2614 167.312 52.9333 167.844 53.662 167.071C54.3908 166.346 56.1882 165.089 56.9655 164.944C57.7914 164.799 60.5606 165.041 61.3379 164.413C62.1152 163.784 61.5807 162.528 59.3459 161.706C57.1112 160.884 56.7711 159.048 57.2084 156.728C57.6456 154.408 60.1718 154.504 62.3093 155.326C64.4469 156.148 65.2728 158.178 66.5845 158.274C67.8962 158.371 68.2363 156.196 69.3536 154.891C70.4224 153.586 70.6653 154.166 71.7827 153.779C72.9486 153.393 75.0378 150.928 75.2807 150.058C75.5236 149.188 76.058 147.593 77.4183 147.883C78.7785 148.221 80.9159 152.233 80.5272 153.828C80.1386 155.423 77.564 156.196 77.0782 156.824C76.5438 157.501 77.1751 159.773 75.6205 160.643C74.0659 161.513 71.3456 160.788 70.1311 161.271C68.9166 161.754 69.6453 163.736 67.702 164.316C65.7588 164.896 65.9045 164.267 64.3499 165.282C62.7953 166.297 61.1435 169.439 59.4432 170.261C57.7429 171.034 57.3057 168.473 56.4798 169.294C55.6054 170.116 56.9655 170.406 57.5971 171.662C58.2287 172.919 57.4027 173.112 56.5768 174.176C55.7509 175.239 50.8443 179.299 51.8159 180.314C52.4475 180.942 53.4678 179.927 54.3422 180.362C55.2167 180.797 55.7024 182.054 55.7024 182.054C55.7024 182.054 52.8362 185.679 49.4841 186.404Z" fill="#B4B4B4"/>
</svg>
